<?xml version="1.0" encoding="UTF-8" standalone="no"?>
<!DOCTYPE svg PUBLIC "-//W3C//DTD SVG 1.1//EN" "http://www.w3.org/Graphics/SVG/1.1/DTD/svg11.dtd">
<svg width="100%" height="100%" viewBox="0 0 14 13" version="1.1" xmlns="http://www.w3.org/2000/svg" xmlns:xlink="http://www.w3.org/1999/xlink" xml:space="preserve" xmlns:serif="http://www.serif.com/" style="fill-rule:evenodd;clip-rule:evenodd;stroke-linejoin:round;stroke-miterlimit:2;">
    <g transform="matrix(1,0,0,1,-6.17188,-1.07366)">
        <path d="M20.101,3.503L20.101,8.361C20.101,9.701 19.146,10.79 17.969,10.79L16.493,10.925L13.079,13.363L13.993,10.79L8.303,10.79C7.127,10.79 6.172,9.701 6.172,8.361L6.172,3.503C6.172,2.162 7.127,1.074 8.303,1.074L17.969,1.074C19.146,1.074 20.101,2.162 20.101,3.503ZM17.476,4.517C17.04,3.701 16.187,3.193 15.264,3.193L8.251,3.193C8.122,3.193 8.013,3.303 8.013,3.442C8.013,3.502 8.042,3.561 8.082,3.611L9.61,5.154C9.749,5.293 9.927,5.363 10.116,5.363L15.056,5.363C15.403,5.363 15.701,5.641 15.701,6C15.701,6.358 15.423,6.647 15.066,6.647L11.663,6.647C11.534,6.647 11.425,6.756 11.425,6.895C11.425,6.955 11.455,7.015 11.495,7.065L13.022,8.607C13.161,8.747 13.34,8.816 13.528,8.816L15.066,8.816C17.08,8.806 18.587,6.657 17.476,4.517Z" style="fill:rgb(235,235,235);"/>
    </g>
</svg>
