<?xml version="1.0" encoding="UTF-8" standalone="no"?>
<!DOCTYPE svg PUBLIC "-//W3C//DTD SVG 1.1//EN" "http://www.w3.org/Graphics/SVG/1.1/DTD/svg11.dtd">
<svg width="100%" height="100%" viewBox="0 0 481 481" version="1.1" xmlns="http://www.w3.org/2000/svg" xmlns:xlink="http://www.w3.org/1999/xlink" xml:space="preserve" xmlns:serif="http://www.serif.com/" style="fill-rule:evenodd;clip-rule:evenodd;stroke-linecap:round;stroke-linejoin:round;stroke-miterlimit:1.5;">
    <g transform="matrix(1,0,0,1,-2153.57,-48.4687)">
        <g transform="matrix(1,0,0,1,796.462,41.305)">
            <g transform="matrix(1,0,0,1,26.5602,-53.4683)">
                <circle cx="1571.01" cy="301.099" r="240.467" style="fill:rgb(35,48,105);"/>
            </g>
        </g>
        <g transform="matrix(1,0,0,1,796.462,41.305)">
            <g transform="matrix(1.24463,0,0,1.18039,-395.385,-30.7239)">
                <g transform="matrix(1.23873,0,0,1.23873,-1311.51,-91.7742)">
                    <path d="M2260.24,173.286C2383.33,296.375 2442.58,355.629 2442.58,355.629" style="fill:none;stroke:black;stroke-width:7.99px;"/>
                </g>
                <g transform="matrix(7.585e-17,1.23873,-1.23873,7.585e-17,1928.84,-2676.94)">
                    <path d="M2260.24,173.286C2383.33,296.375 2442.58,355.629 2442.58,355.629" style="fill:none;stroke:black;stroke-width:7.99px;"/>
                </g>
            </g>
        </g>
    </g>
</svg>
