<?xml version="1.0" encoding="UTF-8" standalone="no"?>
<!DOCTYPE svg PUBLIC "-//W3C//DTD SVG 1.1//EN" "http://www.w3.org/Graphics/SVG/1.1/DTD/svg11.dtd">
<svg width="100%" height="100%" viewBox="0 0 9 8" version="1.1" xmlns="http://www.w3.org/2000/svg" xmlns:xlink="http://www.w3.org/1999/xlink" xml:space="preserve" xmlns:serif="http://www.serif.com/" style="fill-rule:evenodd;clip-rule:evenodd;stroke-linejoin:round;stroke-miterlimit:2;">
    <g transform="matrix(1,0,0,1,-9.5,-4.07143)">
        <path d="M18.5,5.646L18.5,8.796C18.5,9.666 17.794,10.371 16.925,10.371L13.775,10.371L10.305,11.302L12.425,10.371L11.075,10.371C10.206,10.371 9.5,9.666 9.5,8.796L9.5,5.646C9.5,4.777 10.206,4.071 11.075,4.071L16.925,4.071C17.794,4.071 18.5,4.777 18.5,5.646ZM17.232,6.286C16.921,5.705 16.315,5.344 15.658,5.344L10.669,5.344C10.578,5.344 10.5,5.422 10.5,5.521C10.5,5.564 10.521,5.606 10.549,5.641L11.636,6.739C11.735,6.838 11.862,6.887 11.996,6.887L15.51,6.887C15.757,6.887 15.969,7.086 15.969,7.341C15.969,7.595 15.771,7.801 15.517,7.801L13.097,7.801C13.005,7.801 12.927,7.879 12.927,7.978C12.927,8.02 12.949,8.063 12.977,8.098L14.064,9.195C14.162,9.294 14.289,9.344 14.423,9.344L15.517,9.344C16.95,9.337 18.022,7.808 17.232,6.286Z" style="fill:rgb(235,235,235);"/>
    </g>
</svg>
