<svg width="136" height="16" viewBox="0 0 136 16" fill="none" xmlns="http://www.w3.org/2000/svg">
<g clip-path="url(#clip0)">
<path d="M36 11H37.1V8.1H40.1V7.05H37.1V5.05H40.9V4H36V11ZM46.4447 11.1C48.5447 11.1 50.1447 9.5 50.1447 7.5C50.1447 5.5 48.5447 3.9 46.4447 3.9C44.3447 3.9 42.7447 5.5 42.7447 7.5C42.7447 9.5 44.3447 11.1 46.4447 11.1ZM46.4447 10.1C44.9947 10.1 43.8447 8.95 43.8447 7.5C43.8447 6.05 44.9947 4.9 46.4447 4.9C47.8947 4.9 49.0447 6.05 49.0447 7.5C49.0447 8.95 47.8947 10.1 46.4447 10.1ZM52.8308 11H53.9308V8.4H55.5808L57.0308 11H58.2808L56.6908 8.2C56.6908 8.2 58.0308 7.75 58.0308 6.2C58.0308 4.95 57.0808 4 55.7308 4H52.8308V11ZM53.9308 7.4V5H55.7308C56.4308 5 56.9308 5.5 56.9308 6.2C56.9308 6.9 56.4308 7.4 55.7308 7.4H53.9308ZM64.1147 11H65.2147V5.85L67.7647 9.1L70.3147 5.85V11H71.4147V4H70.4147L67.7647 7.4L65.1147 4H64.1147V11ZM74.5516 11H79.6016V9.95H75.6516V7.9H78.7016V6.85H75.6516V5.05H79.5016V4H74.5516V11ZM82.1955 11H83.2955V8.4H84.9455L86.3955 11H87.6455L86.0555 8.2C86.0555 8.2 87.3955 7.75 87.3955 6.2C87.3955 4.95 86.4455 4 85.0955 4H82.1955V11ZM83.2955 7.4V5H85.0955C85.7955 5 86.2955 5.5 86.2955 6.2C86.2955 6.9 85.7955 7.4 85.0955 7.4H83.2955ZM93.4898 11.1C95.3898 11.1 96.3898 9.7 96.3898 9.7L95.6898 9C95.6898 9 94.9398 10.1 93.4898 10.1C92.0398 10.1 90.8898 8.95 90.8898 7.5C90.8898 6.05 92.0398 4.9 93.4898 4.9C94.9398 4.9 95.6398 5.95 95.6398 5.95L96.3398 5.25C96.3398 5.25 95.3898 3.9 93.4898 3.9C91.3898 3.9 89.7898 5.5 89.7898 7.5C89.7898 9.5 91.3898 11.1 93.4898 11.1ZM98.8309 11H99.9309V7.95H103.381V11H104.481V4H103.381V6.95H99.9309V4H98.8309V11ZM106.717 11H107.867L108.567 9.2H111.667L112.367 11H113.517L110.717 4H109.517L106.717 11ZM108.967 8.2L110.117 5.3L111.267 8.2H108.967ZM115.759 11H116.859V5.85L120.709 11H121.709V4H120.609V9.15L116.759 4H115.759V11ZM126.149 11H127.249V5.05H129.349V4H124.049V5.05H126.149V11ZM133.492 11.1C135.042 11.1 135.992 10.15 135.992 9.05C135.992 6.45 132.292 7.4 132.292 5.85C132.292 5.35 132.742 4.9 133.592 4.9C134.542 4.9 135.042 5.55 135.042 5.55L135.792 4.8C135.792 4.8 135.042 3.9 133.592 3.9C132.092 3.9 131.192 4.8 131.192 5.85C131.192 8.45 134.892 7.5 134.892 9.05C134.892 9.6 134.392 10.1 133.492 10.1C132.292 10.1 131.742 9.3 131.742 9.3L130.992 10.05C130.992 10.05 131.792 11.1 133.492 11.1Z" fill="white"/>
</g>
<path d="M26.9277 3.76636C25.6859 1.44425 23.2584 0 20.6333 0H0.677428C0.310488 0 0 0.311501 0 0.707963C0 0.877875 0.0846786 1.04779 0.197584 1.18938L4.54441 5.57875C4.93958 5.9752 5.44766 6.17344 5.98395 6.17344H20.0406C21.0285 6.17344 21.8753 6.96635 21.8753 7.98583C21.8753 9.00524 21.0849 9.82653 20.0688 9.82653H10.3872C10.0203 9.82653 9.70981 10.138 9.70981 10.5345C9.70981 10.7044 9.79449 10.8743 9.9074 11.0159L14.2542 15.4053C14.6494 15.8017 15.1575 16 15.6938 16H20.0688C25.7988 15.9717 30.0892 9.85485 26.9277 3.76636Z" fill="#FF3008"/>
<defs>
<clipPath id="clip0">
<rect width="101" height="9" fill="white" transform="translate(35 3)"/>
</clipPath>
</defs>
</svg>
