<?xml version="1.0" encoding="UTF-8" standalone="no"?>
<!DOCTYPE svg PUBLIC "-//W3C//DTD SVG 1.1//EN" "http://www.w3.org/Graphics/SVG/1.1/DTD/svg11.dtd">
<svg width="100%" height="100%" viewBox="0 0 382 468" version="1.1" xmlns="http://www.w3.org/2000/svg" xmlns:xlink="http://www.w3.org/1999/xlink" xml:space="preserve" xmlns:serif="http://www.serif.com/" style="fill-rule:evenodd;clip-rule:evenodd;stroke-linejoin:round;stroke-miterlimit:2;">
    <g transform="matrix(1,0,0,1,-24113.8,-4093.29)">
        <g transform="matrix(0.425735,0,0,0.569654,13041.3,186.523)">
            <g transform="matrix(1.10181,0,-5.23949e-17,0.823448,-1145.93,4291.32)">
                <path d="M24699.9,3641.41C24740.1,3668.74 24736.2,3736.77 24736.2,3752.03C24736.2,3901.95 24862.4,4059.95 25007.9,4023.67C25296.7,3951.64 25140.6,3568.85 25197.3,3540.27C25231.1,3505.22 25368.3,3594.22 25370.1,3752.03C25372.4,3951.91 25207.8,4114.21 25007.9,4114.21C24808,4114.21 24645.7,3951.92 24645.7,3752.03C24645.7,3731.69 24658.6,3613.3 24699.9,3641.41Z" style="fill:rgb(255,0,0);"/>
            </g>
        </g>
        <g transform="matrix(0.425735,0,0,0.569654,13041.3,186.523)">
            <g transform="matrix(2.34888,0,0,1.75545,-31585.2,-476.375)">
                <path d="M24526.3,4350.99C24545.4,4326.76 24618.5,4340.34 24641.9,4442.9C24753.5,4260.39 24900.2,4172.34 24901,4178.43C24904,4202.34 24869.9,4235.39 24779.1,4348.26C24700.4,4434.52 24690.2,4533.23 24641.9,4536.11C24602.6,4531.22 24615.3,4492.53 24576.4,4438.6C24545.6,4391.48 24502.6,4398.8 24526.3,4350.99Z" style="fill:rgb(204,50,138);"/>
            </g>
        </g>
    </g>
</svg>
