<?xml version="1.0" encoding="UTF-8" standalone="no"?>
<!DOCTYPE svg PUBLIC "-//W3C//DTD SVG 1.1//EN" "http://www.w3.org/Graphics/SVG/1.1/DTD/svg11.dtd">
<svg width="100%" height="100%" viewBox="0 0 481 481" version="1.1" xmlns="http://www.w3.org/2000/svg" xmlns:xlink="http://www.w3.org/1999/xlink" xml:space="preserve" xmlns:serif="http://www.serif.com/" style="fill-rule:evenodd;clip-rule:evenodd;stroke-linejoin:round;stroke-miterlimit:2;">
    <g transform="matrix(1,0,0,1,-1356.27,-48.4687)">
        <g transform="matrix(1,0,0,1,-0.832856,41.305)">
            <g transform="matrix(1,0,0,1,26.5602,-53.4683)">
                <circle cx="1571.01" cy="301.099" r="240.467" style="fill:rgb(35,48,105);"/>
            </g>
        </g>
        <g transform="matrix(1,0,0,1,-0.832856,41.305)">
            <g transform="matrix(0.714397,0,0,0.814131,1355.06,10.4834)">
                <path d="M350,99.148C231.88,99.148 135.78,176.191 135.78,270.898C135.78,313.25 154.971,353.644 189.909,385.098C182.015,419.055 172.366,430.754 167.206,434.727L151.436,446.832C149.116,448.605 148.147,451.633 148.998,454.422C149.842,457.215 152.342,459.187 155.248,459.367L175.025,460.617C175.025,460.617 178.795,460.863 185.084,460.863C205.158,460.863 254.15,458.25 285.037,434.629C305.936,439.942 327.775,442.637 349.999,442.637C468.119,442.637 564.218,365.598 564.218,270.907C564.222,176.2 468.124,99.157 349.998,99.157L350,99.148ZM350,428.628C327.785,428.628 305.996,425.796 285.234,420.198C283.015,419.593 280.664,420.124 278.906,421.597C251.797,444.39 204.269,446.855 185.09,446.855C179.449,446.855 176.035,446.648 175.918,446.644L174.758,446.566L175.73,445.82C187.957,436.417 197.625,415.64 204.488,384.062C205.031,381.554 204.156,378.944 202.215,377.269C168.403,348.148 149.781,310.371 149.781,270.899C149.781,183.919 239.601,113.149 350.001,113.149C460.401,113.149 550.221,183.915 550.221,270.899C550.217,357.872 460.397,428.629 349.991,428.629L350,428.628ZM459.77,216.018L248.37,216.018C244.507,216.018 241.37,219.155 241.37,223.018C241.37,226.881 244.507,230.018 248.37,230.018L459.77,230.018C463.633,230.018 466.77,226.881 466.77,223.018C466.77,219.155 463.637,216.018 459.77,216.018ZM410.77,272.018L248.37,272.018C244.507,272.018 241.37,275.155 241.37,279.018C241.37,282.881 244.507,286.018 248.37,286.018L410.77,286.018C414.633,286.018 417.77,282.881 417.77,279.018C417.77,275.155 414.637,272.018 410.77,272.018ZM372.973,328.018L248.373,328.018C244.51,328.018 241.373,331.155 241.373,335.018C241.373,338.881 244.51,342.018 248.373,342.018L372.973,342.018C376.836,342.018 379.973,338.881 379.973,335.018C379.973,331.155 376.836,328.018 372.973,328.018Z" style="fill-rule:nonzero;"/>
            </g>
        </g>
    </g>
</svg>
