<svg width="136" height="30" viewBox="0 0 136 30" fill="none" xmlns="http://www.w3.org/2000/svg">
<g clip-path="url(#clip0)">
<path d="M36 29H37.1V26.1H40.1V25.05H37.1V23.05H40.9V22H36V29ZM46.4447 29.1C48.5447 29.1 50.1447 27.5 50.1447 25.5C50.1447 23.5 48.5447 21.9 46.4447 21.9C44.3447 21.9 42.7447 23.5 42.7447 25.5C42.7447 27.5 44.3447 29.1 46.4447 29.1ZM46.4447 28.1C44.9947 28.1 43.8447 26.95 43.8447 25.5C43.8447 24.05 44.9947 22.9 46.4447 22.9C47.8947 22.9 49.0447 24.05 49.0447 25.5C49.0447 26.95 47.8947 28.1 46.4447 28.1ZM52.8308 29H53.9308V26.4H55.5808L57.0308 29H58.2808L56.6908 26.2C56.6908 26.2 58.0308 25.75 58.0308 24.2C58.0308 22.95 57.0808 22 55.7308 22H52.8308V29ZM53.9308 25.4V23H55.7308C56.4308 23 56.9308 23.5 56.9308 24.2C56.9308 24.9 56.4308 25.4 55.7308 25.4H53.9308ZM64.1147 29H65.2147V23.85L67.7647 27.1L70.3147 23.85V29H71.4147V22H70.4147L67.7647 25.4L65.1147 22H64.1147V29ZM74.5516 29H79.6016V27.95H75.6516V25.9H78.7016V24.85H75.6516V23.05H79.5016V22H74.5516V29ZM82.1955 29H83.2955V26.4H84.9455L86.3955 29H87.6455L86.0555 26.2C86.0555 26.2 87.3955 25.75 87.3955 24.2C87.3955 22.95 86.4455 22 85.0955 22H82.1955V29ZM83.2955 25.4V23H85.0955C85.7955 23 86.2955 23.5 86.2955 24.2C86.2955 24.9 85.7955 25.4 85.0955 25.4H83.2955ZM93.4898 29.1C95.3898 29.1 96.3898 27.7 96.3898 27.7L95.6898 27C95.6898 27 94.9398 28.1 93.4898 28.1C92.0398 28.1 90.8898 26.95 90.8898 25.5C90.8898 24.05 92.0398 22.9 93.4898 22.9C94.9398 22.9 95.6398 23.95 95.6398 23.95L96.3398 23.25C96.3398 23.25 95.3898 21.9 93.4898 21.9C91.3898 21.9 89.7898 23.5 89.7898 25.5C89.7898 27.5 91.3898 29.1 93.4898 29.1ZM98.8309 29H99.9309V25.95H103.381V29H104.481V22H103.381V24.95H99.9309V22H98.8309V29ZM106.717 29H107.867L108.567 27.2H111.667L112.367 29H113.517L110.717 22H109.517L106.717 29ZM108.967 26.2L110.117 23.3L111.267 26.2H108.967ZM115.759 29H116.859V23.85L120.709 29H121.709V22H120.609V27.15L116.759 22H115.759V29ZM126.149 29H127.249V23.05H129.349V22H124.049V23.05H126.149V29ZM133.492 29.1C135.042 29.1 135.992 28.15 135.992 27.05C135.992 24.45 132.292 25.4 132.292 23.85C132.292 23.35 132.742 22.9 133.592 22.9C134.542 22.9 135.042 23.55 135.042 23.55L135.792 22.8C135.792 22.8 135.042 21.9 133.592 21.9C132.092 21.9 131.192 22.8 131.192 23.85C131.192 26.45 134.892 25.5 134.892 27.05C134.892 27.6 134.392 28.1 133.492 28.1C132.292 28.1 131.742 27.3 131.742 27.3L130.992 28.05C130.992 28.05 131.792 29.1 133.492 29.1Z" fill="white"/>
</g>
<g clip-path="url(#clip1)">
<path d="M38.3903 4.41922V11.2568H40.1414C42.0037 11.229 43.5046 9.70028 43.4768 7.83798C43.5324 6.00352 42.087 4.47481 40.2526 4.41922C40.2248 4.41922 40.1692 4.41922 40.1414 4.41922H38.3903ZM40.1414 2.25122C43.3934 2.25122 45.8671 4.72496 45.8671 7.83798C45.8671 10.951 43.3934 13.4248 40.1414 13.4248H36.2779C36.1112 13.4248 36 13.3136 36 13.1468V2.55697C36 2.3902 36.1112 2.27902 36.2779 2.27902L40.1414 2.25122Z" fill="white"/>
<path d="M54.3169 11.507C56.3459 11.507 57.9858 9.86708 57.9858 7.83805C57.9858 5.80903 56.3459 4.16913 54.3169 4.16913C52.2878 4.16913 50.6479 5.80903 50.6479 7.83805C50.6479 9.86708 52.2878 11.507 54.3169 11.507ZM54.3169 2.02893C57.7356 2.02893 60.3761 4.66944 60.3761 7.83805C60.3761 11.0067 57.7356 13.6472 54.3169 13.6472C50.8981 13.6472 48.2576 11.0067 48.2576 7.83805C48.2576 4.66944 50.8981 2.02893 54.3169 2.02893Z" fill="white"/>
<path d="M68.7145 11.507C70.7436 11.507 72.3835 9.86708 72.3835 7.83805C72.3835 5.80903 70.7436 4.16913 68.7145 4.16913C66.6855 4.16913 65.0456 5.80903 65.0456 7.83805C65.0456 9.86708 66.6855 11.507 68.7145 11.507ZM68.7145 2.02893C72.1333 2.02893 74.7738 4.66944 74.7738 7.83805C74.7738 11.0067 72.1333 13.6472 68.7145 13.6472C65.2958 13.6472 62.6553 11.0067 62.6553 7.83805C62.6553 4.66944 65.268 2.02893 68.7145 2.02893Z" fill="white"/>
<path d="M82.7786 4.41925H80.3049V7.3655H82.7786C83.5847 7.3933 84.2518 6.78181 84.2796 5.97576C84.2796 5.94797 84.2796 5.94797 84.2796 5.92017C84.3073 5.11413 83.6682 4.44705 82.8621 4.41925C82.8343 4.41925 82.8064 4.41925 82.7786 4.41925ZM77.9146 2.557C77.9146 2.39023 78.0258 2.27905 78.1926 2.27905H82.8343C85.0579 2.27905 86.67 3.89115 86.67 5.94797C86.6978 7.33771 85.9194 8.58848 84.6687 9.19998L86.809 12.9801C86.8924 13.119 86.8645 13.2858 86.7255 13.3692C86.6699 13.397 86.6143 13.4248 86.5587 13.4248H84.6687C84.5575 13.4248 84.4741 13.3692 84.4185 13.2858L82.3617 9.53348H80.3049V13.1468C80.3049 13.3136 80.1937 13.4248 80.0269 13.4248H78.2204C78.0536 13.4248 77.9424 13.3136 77.9424 13.1468L77.9146 2.557Z" fill="white"/>
<path d="M92.896 4.44696V11.2845H94.647C96.5093 11.2567 98.0102 9.72798 97.9824 7.86573C98.038 6.03127 96.5927 4.50255 94.7582 4.44696C94.7304 4.44696 94.6748 4.44696 94.647 4.44696H92.896ZM94.647 2.30676C97.899 2.30676 100.373 4.7805 100.373 7.89352C100.373 11.0066 97.899 13.4803 94.647 13.4803H90.7836C90.6168 13.4803 90.5056 13.3691 90.5056 13.2023V2.61251C90.5056 2.44574 90.6168 2.33456 90.7836 2.33456L94.647 2.30676Z" fill="white"/>
<path d="M107.655 5.0307L106.293 8.69958H108.989L107.655 5.0307ZM105.515 10.7565L104.625 13.2024C104.598 13.3136 104.486 13.397 104.347 13.397H102.43C102.291 13.4248 102.152 13.3136 102.124 13.1468C102.124 13.0912 102.124 13.0356 102.152 13.0078L106.321 2.44579C106.349 2.33461 106.488 2.25122 106.599 2.25122H108.739C108.85 2.25122 108.989 2.30681 109.017 2.44579L113.186 13.0078C113.242 13.1468 113.186 13.3136 113.047 13.3692C112.992 13.397 112.964 13.397 112.908 13.397H110.99C110.879 13.397 110.74 13.3136 110.712 13.2024L109.823 10.7565H105.515Z" fill="white"/>
<path d="M115.41 5.25315C115.41 3.50208 116.911 2.00116 119.301 2.00116C120.58 1.97337 121.83 2.44588 122.775 3.33531C122.887 3.44649 122.887 3.64106 122.775 3.75224L121.691 4.83623C121.58 4.94741 121.413 4.94741 121.302 4.86403C120.802 4.39152 120.135 4.14136 119.44 4.14136C118.495 4.14136 117.772 4.69726 117.772 5.33654C117.772 7.42115 123.415 6.22597 123.415 10.2007C123.415 12.2019 121.914 13.7028 119.19 13.7028C117.689 13.7306 116.244 13.1469 115.16 12.0907C115.048 11.9795 115.048 11.8127 115.16 11.7016L116.188 10.6732C116.299 10.562 116.466 10.562 116.577 10.6732C117.244 11.3124 118.106 11.646 119.023 11.6738C120.218 11.6738 120.996 11.0345 120.996 10.2284C121.052 8.08818 115.41 9.28338 115.41 5.25315Z" fill="white"/>
<path d="M133.699 2.52917V6.69839H128.918V2.52917C128.918 2.3902 128.807 2.25122 128.668 2.25122C128.668 2.25122 128.668 2.25122 128.64 2.25122H126.833C126.667 2.25122 126.555 2.3624 126.555 2.52917C126.555 2.52917 126.555 2.52917 126.555 2.55697V13.119C126.555 13.258 126.667 13.397 126.806 13.397C126.806 13.397 126.806 13.397 126.833 13.397H128.64C128.807 13.397 128.918 13.2858 128.918 13.119C128.918 13.119 128.918 13.119 128.918 13.0912V8.86638H133.699V13.0912C133.699 13.2302 133.81 13.3692 133.949 13.3692H133.977H135.783C135.922 13.3692 136.061 13.258 136.061 13.119V13.0912V2.52917C136.061 2.3902 135.95 2.25122 135.811 2.25122H135.783H133.977C133.838 2.25122 133.699 2.3624 133.699 2.50138C133.699 2.52917 133.699 2.52917 133.699 2.52917Z" fill="white"/>
</g>
<path d="M26.9277 3.76636C25.6859 1.44425 23.2584 0 20.6333 0H0.677428C0.310488 0 0 0.311501 0 0.707963C0 0.877875 0.0846786 1.04779 0.197584 1.18938L4.54441 5.57875C4.93958 5.9752 5.44766 6.17344 5.98395 6.17344H20.0406C21.0285 6.17344 21.8753 6.96635 21.8753 7.98583C21.8753 9.00524 21.0849 9.82653 20.0688 9.82653H10.3872C10.0203 9.82653 9.70981 10.138 9.70981 10.5345C9.70981 10.7044 9.79449 10.8743 9.9074 11.0159L14.2542 15.4053C14.6494 15.8017 15.1575 16 15.6938 16H20.0688C25.7988 15.9717 30.0892 9.85485 26.9277 3.76636Z" fill="white"/>
<defs>
<clipPath id="clip0">
<rect width="101" height="9" fill="white" transform="translate(35 21)"/>
</clipPath>
<clipPath id="clip1">
<rect width="100" height="12" fill="white" transform="translate(36 2)"/>
</clipPath>
</defs>
</svg>
