<?xml version="1.0" encoding="UTF-8" standalone="no"?>
<!DOCTYPE svg PUBLIC "-//W3C//DTD SVG 1.1//EN" "http://www.w3.org/Graphics/SVG/1.1/DTD/svg11.dtd">
<svg width="100%" height="100%" viewBox="0 0 2677 287" version="1.1" xmlns="http://www.w3.org/2000/svg" xmlns:xlink="http://www.w3.org/1999/xlink" xml:space="preserve" xmlns:serif="http://www.serif.com/" style="fill-rule:evenodd;clip-rule:evenodd;stroke-linejoin:round;stroke-miterlimit:2;">
    <g transform="matrix(1,0,0,1,-4685.25,-961.859)">
        <g transform="matrix(0.799581,0,0,1,1145.87,809.375)">
            <path d="M4544.26,327.203L4587.19,226.595L4588.11,226.595L4629.66,327.203L4544.26,327.203ZM4551.18,159.011L4426.54,433.187L4499.48,433.187L4525.33,372.131L4648.58,372.131L4673.51,433.187L4748.76,433.187L4625.5,159.011L4551.18,159.011Z" style="fill-rule:nonzero;"/>
            <path d="M5069.12,268.625L4930.63,268.625L4930.63,315.357L5014.29,315.357C5010.55,344.552 4998.15,360.775 4980.72,373.859C4967.46,383.817 4949.1,389.027 4925.1,389.027C4908.78,389.027 4894.94,386.403 4883.55,381.155C4872.16,375.907 4862.93,368.931 4855.85,360.227C4848.77,351.523 4843.62,341.731 4840.39,330.851C4837.16,319.971 4835.54,308.771 4835.54,297.251C4835.54,285.219 4837.16,273.571 4840.39,262.307C4843.62,251.043 4848.77,240.995 4855.85,232.163C4862.93,223.331 4872.16,216.291 4883.55,211.043C4894.94,205.795 4908.78,203.171 4925.1,203.171C4942.64,203.171 4957.56,207.011 4969.87,214.691C4982.18,222.371 4990.49,233.891 4994.8,249.251L5064.04,249.251C5062.2,233.635 5057.12,219.811 5048.81,207.779C5040.5,195.747 5029.96,185.635 5017.19,177.443C5004.42,169.251 4990.11,163.043 4974.26,158.819C4958.41,154.595 4942.02,152.483 4925.1,152.483C4899.86,152.483 4877.16,156.195 4857.01,163.619C4836.85,171.043 4819.85,181.283 4806,194.339C4792.15,207.395 4781.53,222.691 4774.14,240.227C4766.76,257.763 4763.07,276.771 4763.07,297.251C4763.07,317.219 4766.76,335.843 4774.14,353.123C4781.53,370.403 4792.15,385.443 4806,398.243C4819.85,411.043 4836.85,421.091 4857.01,428.387C4877.16,435.683 4899.86,439.331 4925.1,439.331C4941.1,439.331 4956.95,436.579 4972.64,431.075C4988.34,425.571 5009.99,417.732 5022.91,403.908L5022.96,433.187L5069.12,433.187L5069.12,315.357L5359.85,315.357L5359.86,268.625L5069.12,268.625" style="fill-rule:nonzero;"/>
            <path d="M5127.75,433.187L5377.95,433.187L5377.95,382.499L5200.22,382.499L5200.22,334.725L5127.75,334.725" style="fill-rule:nonzero;"/>
            <path d="M5127.75,249.273L5200.22,249.273L5200.22,209.699L5374.25,209.699L5374.25,159.011L5127.75,159.011" style="fill-rule:nonzero;"/>
            <path d="M5613.38,297.251C5613.38,285.219 5614.99,273.571 5618.22,262.307C5621.45,251.043 5626.61,240.995 5633.69,232.163C5640.76,223.331 5650,216.291 5661.38,211.043C5672.77,205.795 5686.62,203.171 5702.93,203.171C5719.24,203.171 5733.09,205.795 5744.48,211.043C5755.86,216.291 5765.1,223.331 5772.17,232.163C5779.25,240.995 5784.41,251.043 5787.64,262.307C5790.87,273.571 5792.48,285.219 5792.48,297.251C5792.48,308.771 5790.87,319.971 5787.64,330.851C5784.41,341.731 5779.25,351.523 5772.17,360.227C5765.1,368.931 5755.86,375.907 5744.48,381.155C5733.09,386.403 5719.24,389.027 5702.93,389.027C5686.62,389.027 5672.77,386.403 5661.38,381.155C5650,375.907 5640.76,368.931 5633.69,360.227C5626.61,351.523 5621.45,341.731 5618.22,330.851C5614.99,319.971 5613.38,308.771 5613.38,297.251ZM5540.9,297.251C5540.9,317.219 5544.59,335.843 5551.98,353.123C5559.36,370.403 5569.98,385.443 5583.83,398.243C5597.68,411.043 5614.68,421.091 5634.84,428.387C5655,435.683 5677.69,439.331 5702.93,439.331C5728.47,439.331 5751.25,435.683 5771.25,428.387C5791.25,421.091 5808.18,411.043 5822.03,398.243C5835.88,385.443 5846.49,370.403 5853.88,353.123C5861.27,335.843 5864.96,317.219 5864.96,297.251C5864.96,276.771 5861.27,257.763 5853.88,240.227C5846.49,222.691 5835.88,207.395 5822.03,194.339C5808.18,181.283 5791.25,171.043 5771.25,163.619C5751.25,156.195 5728.47,152.483 5702.93,152.483C5677.69,152.483 5655,156.195 5634.84,163.619C5614.68,171.043 5597.68,181.283 5583.83,194.339C5569.98,207.395 5559.36,222.691 5551.98,240.227C5544.59,257.763 5540.9,276.771 5540.9,297.251Z" style="fill-rule:nonzero;"/>
            <path d="M5914.35,334.725L5914.35,433.187L5986.83,433.187L5986.79,334.725L5914.35,334.725Z" style="fill-rule:nonzero;"/>
            <path d="M5836.18,268.625L5835.72,315.357L6124.85,315.357L6124.85,268.625L5836.18,268.625Z" style="fill-rule:nonzero;"/>
            <path d="M5914.35,249.273L5986.79,249.273L5986.83,209.699L6146.09,209.699L6146.09,159.011L5914.35,159.011" style="fill-rule:nonzero;"/>
            <path d="M6596.17,329.507L6596.17,159.011L6523.69,159.011L6523.69,329.507C6523.69,349.987 6518.77,365.027 6508.92,374.627C6499.07,384.227 6481.23,389.027 6455.38,389.027C6440.6,389.027 6428.83,387.299 6420.06,383.843C6411.29,380.387 6404.44,375.907 6399.52,370.403C6394.6,364.899 6391.36,358.563 6389.82,351.395C6388.29,344.227 6387.52,336.931 6387.52,329.507L6387.52,159.011L6315.04,159.011L6315.04,329.507C6315.04,366.883 6327.28,394.531 6351.74,412.451C6376.21,430.371 6410.75,439.331 6455.38,439.331C6499.38,439.331 6533.85,430.307 6558.78,412.259C6583.71,394.211 6596.17,366.627 6596.17,329.507Z" style="fill-rule:nonzero;"/>
            <path d="M6658.49,159.011L6658.49,433.187L6726.35,433.187L6726.35,249.635L6727.27,249.635L6864.37,433.187L6936.85,433.187L6936.85,159.011L6868.99,159.011L6868.99,342.947L6868.07,342.947L6730.5,159.011L6658.49,159.011Z" style="fill-rule:nonzero;"/>
            <rect x="7000.55" y="159.011" width="72.475" height="274.176" style="fill-rule:nonzero;"/>
            <path d="M7194.9,297.251C7194.9,285.219 7196.51,273.571 7199.74,262.307C7202.97,251.043 7208.13,240.995 7215.21,232.163C7222.28,223.331 7231.52,216.291 7242.9,211.043C7254.29,205.795 7268.14,203.171 7284.45,203.171C7300.76,203.171 7314.61,205.795 7326,211.043C7337.38,216.291 7346.61,223.331 7353.69,232.163C7360.77,240.995 7365.93,251.043 7369.16,262.307C7372.39,273.571 7374.01,285.219 7374.01,297.251C7374.01,308.771 7372.39,319.971 7369.16,330.851C7365.93,341.731 7360.77,351.523 7353.69,360.227C7346.61,368.931 7337.38,375.907 7326,381.155C7314.61,386.403 7300.76,389.027 7284.45,389.027C7268.14,389.027 7254.29,386.403 7242.9,381.155C7231.52,375.907 7222.28,368.931 7215.21,360.227C7208.13,351.523 7202.97,341.731 7199.74,330.851C7196.51,319.971 7194.9,308.771 7194.9,297.251ZM7122.42,297.251C7122.42,317.219 7126.11,335.843 7133.5,353.123C7140.89,370.403 7151.5,385.443 7165.35,398.243C7179.2,411.043 7196.2,421.091 7216.36,428.387C7236.52,435.683 7259.22,439.331 7284.45,439.331C7309.99,439.331 7332.77,435.683 7352.77,428.387C7372.77,421.091 7389.7,411.043 7403.55,398.243C7417.4,385.443 7428.02,370.403 7435.4,353.123C7442.79,335.843 7446.48,317.219 7446.48,297.251C7446.48,276.771 7442.79,257.763 7435.4,240.227C7428.02,222.691 7417.4,207.395 7403.55,194.339C7389.7,181.283 7372.77,171.043 7352.77,163.619C7332.77,156.195 7309.99,152.483 7284.45,152.483C7259.22,152.483 7236.52,156.195 7216.36,163.619C7196.2,171.043 7179.2,181.283 7165.35,194.339C7151.5,207.395 7140.89,222.691 7133.5,240.227C7126.11,257.763 7122.42,276.771 7122.42,297.251Z" style="fill-rule:nonzero;"/>
            <path d="M7495.87,159.011L7495.87,433.187L7563.73,433.187L7563.73,249.635L7564.65,249.635L7701.76,433.187L7774.23,433.187L7774.23,159.011L7706.37,159.011L7706.37,342.947L7705.45,342.947L7567.89,159.011L7495.87,159.011Z" style="fill-rule:nonzero;"/>
        </g>
    </g>
</svg>
