<?xml version="1.0" encoding="UTF-8" standalone="no"?>
<!DOCTYPE svg PUBLIC "-//W3C//DTD SVG 1.1//EN" "http://www.w3.org/Graphics/SVG/1.1/DTD/svg11.dtd">
<svg width="100%" height="100%" viewBox="0 0 22 18" version="1.1" xmlns="http://www.w3.org/2000/svg" xmlns:xlink="http://www.w3.org/1999/xlink" xml:space="preserve" xmlns:serif="http://www.serif.com/" style="fill-rule:evenodd;clip-rule:evenodd;stroke-linecap:round;stroke-linejoin:round;">
    <g transform="matrix(1,0,0,1,-604.758,-366.758)">
        <g transform="matrix(1,0,0,1,603.758,363.258)">
            <path d="M4,4.5L20,4.5C21.1,4.5 22,5.4 22,6.5L22,18.5C22,19.6 21.1,20.5 20,20.5L4,20.5C2.9,20.5 2,19.6 2,18.5L2,6.5C2,5.4 2.9,4.5 4,4.5Z" style="fill:none;fill-rule:nonzero;stroke:white;stroke-width:2px;"/>
        </g>
        <g transform="matrix(1,0,0,1,603.758,363.258)">
            <path d="M22,6.5L12,13.5L2,6.5" style="fill:none;fill-rule:nonzero;stroke:white;stroke-width:2px;"/>
        </g>
    </g>
</svg>
