<?xml version="1.0" encoding="UTF-8" standalone="no"?>
<!DOCTYPE svg PUBLIC "-//W3C//DTD SVG 1.1//EN" "http://www.w3.org/Graphics/SVG/1.1/DTD/svg11.dtd">
<svg width="100%" height="100%" viewBox="0 0 22 22" version="1.1" xmlns="http://www.w3.org/2000/svg" xmlns:xlink="http://www.w3.org/1999/xlink" xml:space="preserve" xmlns:serif="http://www.serif.com/" style="fill-rule:evenodd;clip-rule:evenodd;stroke-linecap:round;stroke-linejoin:round;">
    <g transform="matrix(1,0,0,1,-616.302,-376.302)">
        <g transform="matrix(1,0,0,1,615.302,374.802)">
            <path d="M12,22.5C17.523,22.5 22,18.023 22,12.5C22,6.977 17.523,2.5 12,2.5C6.477,2.5 2,6.977 2,12.5C2,18.023 6.477,22.5 12,22.5Z" style="fill:none;fill-rule:nonzero;stroke:white;stroke-width:2px;"/>
        </g>
        <g transform="matrix(1,0,0,1,615.302,374.802)">
            <path d="M2,12.5L22,12.5" style="fill:none;fill-rule:nonzero;stroke:white;stroke-width:2px;"/>
        </g>
        <g transform="matrix(1,0,0,1,615.302,374.802)">
            <path d="M12,2.5C14.501,5.238 15.923,8.792 16,12.5C15.923,16.208 14.501,19.762 12,22.5C9.499,19.762 8.077,16.208 8,12.5C8.077,8.792 9.499,5.238 12,2.5Z" style="fill:none;fill-rule:nonzero;stroke:white;stroke-width:2px;"/>
        </g>
    </g>
</svg>
