<?xml version="1.0" encoding="UTF-8" standalone="no"?>
<!DOCTYPE svg PUBLIC "-//W3C//DTD SVG 1.1//EN" "http://www.w3.org/Graphics/SVG/1.1/DTD/svg11.dtd">
<svg width="100%" height="100%" viewBox="0 0 130 30" version="1.1" xmlns="http://www.w3.org/2000/svg" xmlns:xlink="http://www.w3.org/1999/xlink" xml:space="preserve" xmlns:serif="http://www.serif.com/" style="fill-rule:evenodd;clip-rule:evenodd;stroke-linejoin:round;stroke-miterlimit:2;">
    <g transform="matrix(1,0,0,1,-573.028,-242.735)">
        <g transform="matrix(1,0,0,1,550.978,220.335)">
            <path d="M35.45,26.65L35.45,22.4L22.05,22.4L22.05,51.6L35.45,51.6L35.45,47.35C32.705,47.35 30.072,46.26 28.132,44.319C26.191,42.378 25.1,39.745 25.1,37C25.1,34.255 26.191,31.622 28.132,29.682C30.072,27.741 32.705,26.65 35.45,26.65Z" style="fill:rgb(53,99,233);fill-rule:nonzero;"/>
        </g>
        <g transform="matrix(1,0,0,1,550.978,220.335)">
            <path d="M35.45,26.65L35.45,47.35C38.195,47.35 40.828,46.26 42.769,44.319C44.71,42.378 45.8,39.745 45.8,37C45.8,34.255 44.71,31.622 42.769,29.682C40.828,27.741 38.195,26.65 35.45,26.65Z" style="fill:rgb(53,99,233);fill-rule:nonzero;"/>
        </g>
        <g transform="matrix(1,0,0,1,550.978,220.335)">
            <rect x="53.32" y="29.25" width="3" height="14.45" style="fill:rgb(53,99,233);fill-rule:nonzero;"/>
        </g>
        <g transform="matrix(1,0,0,1,550.978,220.335)">
            <path d="M58,38.75C58,37.71 58.309,36.694 58.887,35.83C59.465,34.966 60.287,34.293 61.248,33.897C62.209,33.5 63.266,33.398 64.285,33.603C65.305,33.808 66.24,34.311 66.973,35.048C67.706,35.786 68.204,36.724 68.403,37.744C68.602,38.765 68.494,39.821 68.092,40.78C67.69,41.739 67.012,42.557 66.145,43.13C65.278,43.703 64.26,44.006 63.22,44C62.531,44.005 61.847,43.873 61.209,43.611C60.571,43.348 59.992,42.961 59.506,42.472C59.02,41.984 58.636,41.402 58.378,40.763C58.119,40.124 57.991,39.44 58,38.75ZM65.52,38.75C65.508,38.302 65.365,37.867 65.107,37.5C64.849,37.133 64.489,36.85 64.072,36.687C63.654,36.523 63.198,36.487 62.76,36.581C62.321,36.676 61.921,36.898 61.608,37.219C61.295,37.54 61.084,37.946 61,38.387C60.917,38.827 60.966,39.283 61.14,39.696C61.314,40.109 61.606,40.462 61.98,40.71C62.353,40.958 62.792,41.09 63.24,41.09C63.545,41.096 63.849,41.039 64.131,40.922C64.413,40.806 64.668,40.632 64.88,40.413C65.092,40.193 65.257,39.932 65.363,39.646C65.47,39.36 65.517,39.055 65.5,38.75L65.52,38.75Z" style="fill:rgb(53,99,233);fill-rule:nonzero;"/>
        </g>
        <g transform="matrix(1,0,0,1,550.978,220.335)">
            <path d="M80.31,33.8L80.31,43.21C80.31,46.53 77.71,47.94 75.08,47.94C74.152,48.016 73.222,47.832 72.393,47.408C71.565,46.984 70.871,46.337 70.39,45.54L72.92,44.08C73.125,44.493 73.451,44.834 73.855,45.058C74.259,45.281 74.721,45.376 75.18,45.33C75.473,45.366 75.769,45.337 76.049,45.245C76.329,45.153 76.585,45 76.799,44.798C77.013,44.595 77.18,44.348 77.287,44.073C77.395,43.799 77.44,43.504 77.42,43.21L77.42,42.3C77.071,42.723 76.628,43.059 76.126,43.282C75.625,43.504 75.078,43.606 74.53,43.58C73.204,43.58 71.932,43.053 70.995,42.116C70.057,41.178 69.53,39.906 69.53,38.58C69.53,37.254 70.057,35.982 70.995,35.045C71.932,34.107 73.204,33.58 74.53,33.58C75.078,33.554 75.625,33.656 76.126,33.879C76.628,34.101 77.071,34.437 77.42,34.86L77.42,33.86L80.31,33.8ZM77.42,38.55C77.44,38.072 77.316,37.598 77.065,37.191C76.814,36.783 76.446,36.46 76.01,36.263C75.573,36.066 75.088,36.004 74.616,36.085C74.144,36.166 73.707,36.386 73.362,36.717C73.016,37.048 72.777,37.476 72.676,37.944C72.575,38.412 72.616,38.899 72.795,39.344C72.973,39.788 73.28,40.169 73.677,40.438C74.073,40.706 74.541,40.85 75.02,40.85C75.333,40.873 75.646,40.829 75.941,40.723C76.236,40.617 76.505,40.45 76.731,40.233C76.957,40.016 77.135,39.755 77.254,39.465C77.373,39.175 77.429,38.863 77.42,38.55Z" style="fill:rgb(53,99,233);fill-rule:nonzero;"/>
        </g>
        <g transform="matrix(1,0,0,1,550.978,220.335)">
            <path d="M82,38.75C82,37.711 82.308,36.696 82.885,35.832C83.463,34.969 84.283,34.296 85.243,33.899C86.203,33.502 87.259,33.398 88.278,33.602C89.297,33.805 90.232,34.306 90.966,35.041C91.7,35.777 92.199,36.713 92.4,37.732C92.602,38.751 92.496,39.807 92.098,40.766C91.699,41.725 91.024,42.544 90.159,43.12C89.295,43.696 88.279,44.002 87.24,44C86.549,44.007 85.864,43.875 85.225,43.614C84.585,43.352 84.004,42.966 83.516,42.477C83.028,41.988 82.643,41.406 82.382,40.766C82.122,40.126 81.992,39.441 82,38.75ZM89.52,38.75C89.508,38.301 89.364,37.866 89.106,37.499C88.848,37.132 88.488,36.849 88.069,36.686C87.651,36.523 87.194,36.487 86.756,36.582C86.317,36.678 85.917,36.9 85.604,37.222C85.292,37.545 85.081,37.952 84.999,38.393C84.917,38.834 84.967,39.29 85.143,39.703C85.319,40.116 85.612,40.468 85.987,40.714C86.362,40.961 86.801,41.092 87.25,41.09C87.555,41.096 87.859,41.039 88.141,40.922C88.423,40.806 88.678,40.632 88.89,40.413C89.102,40.193 89.267,39.932 89.373,39.646C89.48,39.36 89.527,39.055 89.51,38.75L89.52,38.75Z" style="fill:rgb(53,99,233);fill-rule:nonzero;"/>
        </g>
        <g transform="matrix(1,0,0,1,550.978,220.335)">
            <path d="M93.87,31.15C93.87,30.798 93.974,30.454 94.17,30.161C94.366,29.868 94.644,29.64 94.969,29.506C95.294,29.371 95.652,29.336 95.997,29.404C96.343,29.473 96.66,29.642 96.909,29.891C97.158,30.14 97.327,30.458 97.396,30.803C97.465,31.148 97.429,31.506 97.295,31.831C97.16,32.156 96.932,32.434 96.639,32.63C96.346,32.826 96.002,32.93 95.65,32.93C95.18,32.925 94.73,32.736 94.397,32.403C94.064,32.07 93.875,31.621 93.87,31.15ZM94.16,33.8L97.16,33.8L97.16,43.7L94.16,43.7L94.16,33.8Z" style="fill:rgb(53,99,233);fill-rule:nonzero;"/>
        </g>
        <g transform="matrix(1,0,0,1,550.978,220.335)">
            <path d="M110,38.75C110.034,39.408 109.937,40.067 109.715,40.688C109.493,41.309 109.15,41.879 108.707,42.367C108.264,42.855 107.728,43.251 107.132,43.531C106.535,43.811 105.889,43.971 105.23,44C104.671,44.037 104.111,43.948 103.592,43.738C103.072,43.529 102.607,43.205 102.23,42.79L102.23,47.68L99.23,47.68L99.23,33.8L102.23,33.8L102.23,34.73C102.607,34.317 103.073,33.994 103.592,33.786C104.112,33.578 104.672,33.491 105.23,33.53C105.886,33.56 106.53,33.718 107.124,33.996C107.719,34.275 108.253,34.667 108.696,35.152C109.139,35.637 109.482,36.204 109.706,36.821C109.93,37.439 110.03,38.094 110,38.75ZM107,38.75C106.988,38.286 106.839,37.835 106.573,37.455C106.306,37.074 105.933,36.781 105.5,36.612C105.067,36.443 104.594,36.405 104.14,36.504C103.686,36.602 103.271,36.833 102.948,37.166C102.624,37.499 102.406,37.921 102.321,38.377C102.236,38.834 102.287,39.306 102.469,39.733C102.651,40.161 102.955,40.525 103.343,40.781C103.731,41.036 104.185,41.172 104.65,41.17C104.968,41.184 105.286,41.13 105.582,41.012C105.878,40.894 106.145,40.715 106.367,40.487C106.589,40.258 106.76,39.985 106.869,39.686C106.978,39.387 107.023,39.068 107,38.75Z" style="fill:rgb(53,99,233);fill-rule:nonzero;"/>
        </g>
        <g transform="matrix(1,0,0,1,550.978,220.335)">
            <path d="M119.13,40.73C119.13,43.01 117.13,43.98 115.01,43.98C114.145,44.058 113.277,43.875 112.518,43.454C111.758,43.033 111.143,42.394 110.75,41.62L113.33,40.16C113.432,40.517 113.654,40.828 113.958,41.041C114.262,41.254 114.63,41.356 115,41.33C115.71,41.33 116.07,41.11 116.07,40.71C116.07,39.62 111.2,40.2 111.2,36.77C111.2,34.61 113.02,33.53 115.08,33.53C115.863,33.495 116.641,33.673 117.331,34.044C118.021,34.416 118.598,34.967 119,35.64L116.42,37C116.306,36.742 116.12,36.523 115.884,36.368C115.648,36.214 115.372,36.131 115.09,36.13C114.57,36.13 114.26,36.33 114.26,36.68C114.26,37.82 119.13,37.07 119.13,40.73Z" style="fill:rgb(53,99,233);fill-rule:nonzero;"/>
        </g>
        <g transform="matrix(1,0,0,1,550.978,220.335)">
            <path d="M130,33.8L130,43.7L127,43.7L127,42.77C126.659,43.182 126.226,43.507 125.737,43.721C125.247,43.935 124.714,44.03 124.18,44C122.18,44 120.47,42.57 120.47,39.9L120.47,33.8L123.47,33.8L123.47,39.45C123.446,39.686 123.474,39.925 123.552,40.149C123.63,40.373 123.755,40.578 123.919,40.749C124.084,40.92 124.284,41.054 124.505,41.14C124.726,41.227 124.963,41.264 125.2,41.25C126.28,41.25 127.04,40.61 127.04,39.25L127.04,33.8L130,33.8Z" style="fill:rgb(53,99,233);fill-rule:nonzero;"/>
        </g>
        <g transform="matrix(1,0,0,1,550.978,220.335)">
            <path d="M147,37.62L147,43.7L144,43.7L144,37.88C144,36.88 143.53,36.26 142.58,36.26C141.63,36.26 141.03,36.95 141.03,38.12L141.03,43.7L138.03,43.7L138.03,37.88C138.03,36.88 137.56,36.26 136.61,36.26C135.66,36.26 135.06,36.95 135.06,38.12L135.06,43.7L132.06,43.7L132.06,33.8L135.06,33.8L135.06,34.71C135.371,34.308 135.776,33.99 136.241,33.784C136.705,33.578 137.214,33.49 137.72,33.53C138.227,33.504 138.733,33.609 139.187,33.837C139.641,34.065 140.028,34.407 140.31,34.83C140.64,34.388 141.076,34.038 141.578,33.81C142.079,33.583 142.631,33.487 143.18,33.53C145.52,33.53 147,35.15 147,37.62Z" style="fill:rgb(53,99,233);fill-rule:nonzero;"/>
        </g>
        <g transform="matrix(1,0,0,1,550.978,220.335)">
            <path d="M149.52,33.74C150.735,33.74 151.72,32.755 151.72,31.54C151.72,30.325 150.735,29.34 149.52,29.34C148.305,29.34 147.32,30.325 147.32,31.54C147.32,32.755 148.305,33.74 149.52,33.74Z" style="fill:rgb(53,99,233);fill-rule:nonzero;"/>
        </g>
    </g>
</svg>
