<?xml version="1.0" encoding="UTF-8" standalone="no"?>
<!DOCTYPE svg PUBLIC "-//W3C//DTD SVG 1.1//EN" "http://www.w3.org/Graphics/SVG/1.1/DTD/svg11.dtd">
<svg width="100%" height="100%" viewBox="0 0 1200 630" version="1.1" xmlns="http://www.w3.org/2000/svg" xmlns:xlink="http://www.w3.org/1999/xlink" xml:space="preserve" xmlns:serif="http://www.serif.com/" style="fill-rule:evenodd;clip-rule:evenodd;stroke-linejoin:round;stroke-miterlimit:2;">
    <g transform="matrix(4.91803,0,0,2.49012,-1563.93,-714.664)">
        <rect x="318" y="287" width="244" height="253" style="fill:rgb(115,27,24);"/>
    </g>
    <g transform="matrix(1,0,0,1,-112.594,0)">
        <g transform="matrix(1,0,0,1,200,-16)">
            <g transform="matrix(1.21119,0.113813,-0.108117,1.15058,-112.52,-153.731)">
                <path d="M428,346C428.677,280.588 340.944,215.703 398,196C455.056,176.297 584.266,273.677 577,349C569.734,424.323 464.551,507.858 416.472,502.484C368.393,497.11 427.384,405.548 428,346Z" style="fill:rgb(202,202,202);"/>
            </g>
            <g transform="matrix(-0.0872309,0.996188,-0.476078,-0.0416876,841.924,-51.1842)">
                <path d="M476.123,349.954C476.799,284.542 340.944,215.703 398,196C455.056,176.297 584.266,273.677 577,349C569.734,424.323 479.079,513.374 431,508C382.921,502.626 475.506,409.502 476.123,349.954Z" style="fill:rgb(202,202,202);"/>
            </g>
        </g>
        <g transform="matrix(1,0,0,1,194,-19)">
            <g transform="matrix(1.21119,0.113813,-0.108117,1.15058,-112.52,-153.731)">
                <path d="M428,346C428.677,280.588 340.944,215.703 398,196C455.056,176.297 584.266,273.677 577,349C569.734,424.323 464.551,507.858 416.472,502.484C368.393,497.11 427.384,405.548 428,346Z" style="fill:rgb(0,38,63);"/>
            </g>
            <g transform="matrix(-0.0872309,0.996188,-0.476078,-0.0416876,841.924,-51.1842)">
                <path d="M476.123,349.954C476.799,284.542 340.944,215.703 398,196C455.056,176.297 584.266,273.677 577,349C569.734,424.323 479.079,513.374 431,508C382.921,502.626 475.506,409.502 476.123,349.954Z" style="fill:rgb(0,38,63);"/>
            </g>
        </g>
    </g>
</svg>
